<svg xmlns="http://www.w3.org/2000/svg" width="48" height="48" viewBox="0 0 48 48" version="1.1">
	<path d="M 14.500 6.367 L 5.500 12.665 5.500 24.582 L 5.500 36.500 13.945 42.250 C 18.590 45.413, 23.234 48, 24.264 48 C 25.295 48, 29.932 45.413, 34.569 42.250 L 43 36.500 43 24.382 L 43 12.264 33.700 6.132 C 28.586 2.759, 24.198 0.016, 23.950 0.035 C 23.703 0.053, 19.450 2.903, 14.500 6.367 M 25.547 3.676 C 26.673 4.679, 28.889 7.439, 30.473 9.809 L 33.353 14.117 30.446 16.809 C 28.848 18.289, 27.300 19.423, 27.006 19.329 C 26.713 19.235, 25.928 20.314, 25.261 21.727 C 24.129 24.126, 24.375 24.613, 28.973 29.068 C 32.578 32.560, 34.448 33.696, 35.949 33.303 C 37.077 33.008, 38.002 32.032, 38.004 31.133 C 38.006 30.235, 38.906 28.027, 40.004 26.226 C 41.268 24.152, 41.993 21.219, 41.980 18.226 L 41.959 13.500 33.835 8 C 25.411 2.297, 22.005 0.520, 25.547 3.676 M 14.552 8.089 C 10.731 10.824, 7.394 13.273, 7.136 13.531 C 6.878 13.789, 8.488 14, 10.713 14 C 14.448 14, 15.080 13.576, 18.912 8.500 C 21.196 5.475, 22.713 3.026, 22.282 3.058 C 21.852 3.090, 18.374 5.354, 14.552 8.089 M 8 15.395 C 8 15.612, 8.928 18.794, 10.062 22.467 C 11.741 27.900, 11.890 29.427, 10.865 30.663 C 9.747 32.009, 9.458 31.979, 8.303 30.399 C 7.109 28.767, 7 28.834, 7 31.202 C 7 33.986, 8.572 35, 12.889 35 C 14.993 35, 16.357 36.052, 18.864 39.610 C 20.651 42.145, 22.284 44.049, 22.493 43.841 C 22.701 43.632, 22.616 41.558, 22.304 39.231 C 21.875 36.035, 21.280 34.969, 19.868 34.875 C 16.887 34.676, 16.198 34.532, 15.676 34 C 15.406 33.725, 14.872 29.675, 14.489 25 C 14.107 20.325, 13.278 16.169, 12.647 15.765 C 11.441 14.993, 8 14.718, 8 15.395 M 23.813 28.683 C 24.534 28.972, 25.397 28.936, 25.729 28.604 C 26.061 28.272, 25.471 28.036, 24.417 28.079 C 23.252 28.127, 23.015 28.364, 23.813 28.683 M 32.254 36.250 C 31.709 36.938, 30.042 39.462, 28.550 41.859 L 25.837 46.219 32.892 41.363 C 38.423 37.557, 39.575 36.360, 38.224 35.824 C 35.495 34.742, 33.327 34.897, 32.254 36.250" stroke="none" fill="black" fill-rule="evenodd"/>
</svg>